<?xml version="1.0" encoding="UTF-8" standalone="no"?>
<!DOCTYPE svg PUBLIC "-//W3C//DTD SVG 1.1//EN"
 "http://www.w3.org/Graphics/SVG/1.1/DTD/svg11.dtd">
<!-- Generated by graphviz version 11.0.0 (20240428.1522)
 -->
<!-- Pages: 1 -->
<svg width="465pt" height="386pt"
 viewBox="0.00 0.00 465.18 386.24" xmlns="http://www.w3.org/2000/svg" xmlns:xlink="http://www.w3.org/1999/xlink">
<g id="graph0" class="graph" transform="scale(1 1) rotate(0) translate(4 382.24)">
<polygon fill="white" stroke="none" points="-4,4 -4,-382.24 461.18,-382.24 461.18,4 -4,4"/>
<!-- 2637102198928 -->
<g id="node1" class="node">
<title>2637102198928</title>
<ellipse fill="lightgrey" stroke="black" cx="264.59" cy="-255.12" rx="24.12" ry="24.12"/>
<text text-anchor="middle" x="264.59" y="-249.69" font-family="Times New Roman,serif" font-size="14.00">n32</text>
</g>
<!-- 2637102195856 -->
<g id="node11" class="node">
<title>2637102195856</title>
<ellipse fill="lightgrey" stroke="black" cx="348.83" cy="-255.12" rx="24.12" ry="24.12"/>
<text text-anchor="middle" x="348.83" y="-249.69" font-family="Times New Roman,serif" font-size="14.00">n41</text>
</g>
<!-- 2637102198928&#45;&gt;2637102195856 -->
<g id="edge23" class="edge">
<title>2637102198928&#45;&gt;2637102195856</title>
<path fill="none" stroke="black" d="M288.94,-255.12C297.96,-255.12 308.41,-255.12 317.97,-255.12"/>
<polygon fill="black" stroke="black" points="317.91,-256.87 322.91,-255.12 317.91,-253.37 317.91,-256.87"/>
</g>
<!-- 2637102196048 -->
<g id="node15" class="node">
<title>2637102196048</title>
<ellipse fill="lightgrey" stroke="black" cx="348.83" cy="-189.12" rx="24.12" ry="24.12"/>
<text text-anchor="middle" x="348.83" y="-183.69" font-family="Times New Roman,serif" font-size="14.00">n42</text>
</g>
<!-- 2637102198928&#45;&gt;2637102196048 -->
<g id="edge84" class="edge">
<title>2637102198928&#45;&gt;2637102196048</title>
<path fill="none" stroke="black" d="M283.84,-240.47C295.79,-230.88 311.51,-218.26 324.38,-207.93"/>
<polygon fill="black" stroke="black" points="325.36,-209.39 328.16,-204.9 323.17,-206.67 325.36,-209.39"/>
</g>
<!-- 2637102194576 -->
<g id="node19" class="node">
<title>2637102194576</title>
<ellipse fill="lightgrey" stroke="black" cx="348.83" cy="-123.12" rx="24.12" ry="24.12"/>
<text text-anchor="middle" x="348.83" y="-117.69" font-family="Times New Roman,serif" font-size="14.00">n43</text>
</g>
<!-- 2637102198928&#45;&gt;2637102194576 -->
<g id="edge27" class="edge">
<title>2637102198928&#45;&gt;2637102194576</title>
<path fill="none" stroke="black" d="M279.65,-235.82C282.73,-231.38 285.91,-226.64 288.71,-222.12 306.32,-193.72 307.1,-184.51 324.71,-156.12 326.46,-153.29 328.36,-150.38 330.29,-147.51"/>
<polygon fill="black" stroke="black" points="331.54,-148.78 332.91,-143.67 328.65,-146.81 331.54,-148.78"/>
</g>
<!-- 2637102186768 -->
<g id="node2" class="node">
<title>2637102186768</title>
<polygon fill="none" stroke="black" points="36,-261.12 0,-261.12 0,-225.12 36,-225.12 36,-261.12"/>
<text text-anchor="middle" x="18" y="-237.69" font-family="Times New Roman,serif" font-size="14.00">x1</text>
</g>
<!-- 2637101613584 -->
<g id="node4" class="node">
<title>2637101613584</title>
<ellipse fill="lightgrey" stroke="black" cx="96.12" cy="-156.12" rx="24.12" ry="24.12"/>
<text text-anchor="middle" x="96.12" y="-150.69" font-family="Times New Roman,serif" font-size="14.00">n14</text>
</g>
<!-- 2637102186768&#45;&gt;2637101613584 -->
<g id="edge16" class="edge">
<title>2637102186768&#45;&gt;2637101613584</title>
<path fill="none" stroke="black" d="M35.14,-224.67C46.91,-211.22 62.9,-192.94 75.42,-178.63"/>
<polygon fill="black" stroke="black" points="76.55,-180 78.52,-175.09 73.91,-177.7 76.55,-180"/>
</g>
<!-- 2637101615760 -->
<g id="node6" class="node">
<title>2637101615760</title>
<ellipse fill="lightgrey" stroke="black" cx="96.12" cy="-90.12" rx="24.12" ry="24.12"/>
<text text-anchor="middle" x="96.12" y="-84.69" font-family="Times New Roman,serif" font-size="14.00">n11</text>
</g>
<!-- 2637102186768&#45;&gt;2637101615760 -->
<g id="edge57" class="edge">
<title>2637102186768&#45;&gt;2637101615760</title>
<path fill="none" stroke="black" d="M31.19,-224.8C32.9,-221.94 34.56,-218.99 36,-216.12 55.9,-176.51 51.13,-162.22 72,-123.12 73.56,-120.19 75.34,-117.21 77.21,-114.3"/>
<polygon fill="black" stroke="black" points="78.47,-115.56 79.78,-110.42 75.55,-113.62 78.47,-115.56"/>
</g>
<!-- 2637101614480 -->
<g id="node16" class="node">
<title>2637101614480</title>
<ellipse fill="lightgrey" stroke="black" cx="96.12" cy="-288.12" rx="24.12" ry="24.12"/>
<text text-anchor="middle" x="96.12" y="-282.69" font-family="Times New Roman,serif" font-size="14.00">n13</text>
</g>
<!-- 2637102186768&#45;&gt;2637101614480 -->
<g id="edge65" class="edge">
<title>2637102186768&#45;&gt;2637101614480</title>
<path fill="none" stroke="black" d="M36.27,-253.33C45.98,-259.07 58.3,-266.35 69.15,-272.77"/>
<polygon fill="black" stroke="black" points="68.18,-274.22 73.37,-275.26 69.96,-271.21 68.18,-274.22"/>
</g>
<!-- 2637101625232 -->
<g id="node22" class="node">
<title>2637101625232</title>
<ellipse fill="lightgrey" stroke="black" cx="96.12" cy="-222.12" rx="24.12" ry="24.12"/>
<text text-anchor="middle" x="96.12" y="-216.69" font-family="Times New Roman,serif" font-size="14.00">n12</text>
</g>
<!-- 2637102186768&#45;&gt;2637101625232 -->
<g id="edge56" class="edge">
<title>2637102186768&#45;&gt;2637101625232</title>
<path fill="none" stroke="black" d="M36.27,-238.35C45.14,-235.91 56.17,-232.86 66.28,-230.07"/>
<polygon fill="black" stroke="black" points="66.61,-231.8 70.97,-228.78 65.68,-228.42 66.61,-231.8"/>
</g>
<!-- 2637101465936 -->
<g id="node3" class="node">
<title>2637101465936</title>
<ellipse fill="lightgrey" stroke="black" cx="180.35" cy="-354.12" rx="24.12" ry="24.12"/>
<text text-anchor="middle" x="180.35" y="-348.69" font-family="Times New Roman,serif" font-size="14.00">n22</text>
</g>
<!-- 2637101465936&#45;&gt;2637102198928 -->
<g id="edge78" class="edge">
<title>2637101465936&#45;&gt;2637102198928</title>
<path fill="none" stroke="black" d="M196.44,-335.96C209.92,-319.73 229.73,-295.88 244.35,-278.28"/>
<polygon fill="black" stroke="black" points="245.51,-279.63 247.36,-274.66 242.82,-277.39 245.51,-279.63"/>
</g>
<!-- 2637102193488 -->
<g id="node8" class="node">
<title>2637102193488</title>
<ellipse fill="lightgrey" stroke="black" cx="264.59" cy="-189.12" rx="24.12" ry="24.12"/>
<text text-anchor="middle" x="264.59" y="-183.69" font-family="Times New Roman,serif" font-size="14.00">n34</text>
</g>
<!-- 2637101465936&#45;&gt;2637102193488 -->
<g id="edge64" class="edge">
<title>2637101465936&#45;&gt;2637102193488</title>
<path fill="none" stroke="black" d="M195.93,-335.11C198.98,-330.66 202.02,-325.83 204.47,-321.12 226.09,-279.59 218.86,-263.65 240.47,-222.12 242.01,-219.17 243.77,-216.18 245.62,-213.27"/>
<polygon fill="black" stroke="black" points="246.88,-214.52 248.18,-209.39 243.96,-212.59 246.88,-214.52"/>
</g>
<!-- 2637102200016 -->
<g id="node13" class="node">
<title>2637102200016</title>
<ellipse fill="lightgrey" stroke="black" cx="264.59" cy="-123.12" rx="24.12" ry="24.12"/>
<text text-anchor="middle" x="264.59" y="-117.69" font-family="Times New Roman,serif" font-size="14.00">n31</text>
</g>
<!-- 2637101465936&#45;&gt;2637102200016 -->
<g id="edge29" class="edge">
<title>2637101465936&#45;&gt;2637102200016</title>
<path fill="none" stroke="black" d="M196.17,-335.69C199.28,-331.13 202.28,-326.12 204.47,-321.12 234.59,-252.37 210.35,-224.87 240.47,-156.12 241.84,-152.99 243.53,-149.86 245.36,-146.84"/>
<polygon fill="black" stroke="black" points="246.72,-147.97 247.96,-142.82 243.78,-146.07 246.72,-147.97"/>
</g>
<!-- 2637102194000 -->
<g id="node14" class="node">
<title>2637102194000</title>
<ellipse fill="lightgrey" stroke="black" cx="264.59" cy="-57.12" rx="24.12" ry="24.12"/>
<text text-anchor="middle" x="264.59" y="-51.69" font-family="Times New Roman,serif" font-size="14.00">n35</text>
</g>
<!-- 2637101465936&#45;&gt;2637102194000 -->
<g id="edge53" class="edge">
<title>2637101465936&#45;&gt;2637102194000</title>
<path fill="none" stroke="black" d="M196.39,-335.78C199.49,-331.22 202.43,-326.18 204.47,-321.12 243.29,-224.73 201.66,-186.5 240.47,-90.12 241.75,-86.95 243.37,-83.8 245.17,-80.76"/>
<polygon fill="black" stroke="black" points="246.53,-81.89 247.75,-76.73 243.58,-80 246.53,-81.89"/>
</g>
<!-- 2637102202704 -->
<g id="node21" class="node">
<title>2637102202704</title>
<ellipse fill="lightgrey" stroke="black" cx="264.59" cy="-321.12" rx="24.12" ry="24.12"/>
<text text-anchor="middle" x="264.59" y="-315.69" font-family="Times New Roman,serif" font-size="14.00">n33</text>
</g>
<!-- 2637101465936&#45;&gt;2637102202704 -->
<g id="edge70" class="edge">
<title>2637101465936&#45;&gt;2637102202704</title>
<path fill="none" stroke="black" d="M202.96,-345.45C213.08,-341.39 225.25,-336.5 236.02,-332.18"/>
<polygon fill="black" stroke="black" points="236.45,-333.9 240.44,-330.41 235.15,-330.65 236.45,-333.9"/>
</g>
<!-- 2637101613584&#45;&gt;2637101465936 -->
<g id="edge58" class="edge">
<title>2637101613584&#45;&gt;2637101465936</title>
<path fill="none" stroke="black" d="M111.74,-174.63C114.87,-179.19 117.92,-184.18 120.24,-189.12 146.06,-244.17 130.41,-266.07 156.24,-321.12 157.68,-324.21 159.42,-327.31 161.28,-330.32"/>
<polygon fill="black" stroke="black" points="159.7,-331.11 163.9,-334.34 162.63,-329.2 159.7,-331.11"/>
</g>
<!-- 2637101472592 -->
<g id="node7" class="node">
<title>2637101472592</title>
<ellipse fill="lightgrey" stroke="black" cx="180.35" cy="-288.12" rx="24.12" ry="24.12"/>
<text text-anchor="middle" x="180.35" y="-282.69" font-family="Times New Roman,serif" font-size="14.00">n23</text>
</g>
<!-- 2637101613584&#45;&gt;2637101472592 -->
<g id="edge52" class="edge">
<title>2637101613584&#45;&gt;2637101472592</title>
<path fill="none" stroke="black" d="M111.18,-175.42C114.26,-179.86 117.43,-184.6 120.24,-189.12 137.85,-217.51 138.62,-226.72 156.24,-255.12 157.99,-257.94 159.89,-260.85 161.81,-263.72"/>
<polygon fill="black" stroke="black" points="160.18,-264.43 164.44,-267.57 163.06,-262.45 160.18,-264.43"/>
</g>
<!-- 2637102201808 -->
<g id="node9" class="node">
<title>2637102201808</title>
<ellipse fill="lightgrey" stroke="black" cx="180.35" cy="-222.12" rx="24.12" ry="24.12"/>
<text text-anchor="middle" x="180.35" y="-216.69" font-family="Times New Roman,serif" font-size="14.00">n25</text>
</g>
<!-- 2637101613584&#45;&gt;2637102201808 -->
<g id="edge36" class="edge">
<title>2637101613584&#45;&gt;2637102201808</title>
<path fill="none" stroke="black" d="M115.37,-170.77C127.32,-180.35 143.04,-192.97 155.91,-203.3"/>
<polygon fill="black" stroke="black" points="154.69,-204.57 159.69,-206.34 156.89,-201.84 154.69,-204.57"/>
</g>
<!-- 2636776924752 -->
<g id="node17" class="node">
<title>2636776924752</title>
<ellipse fill="lightgrey" stroke="black" cx="180.35" cy="-156.12" rx="24.12" ry="24.12"/>
<text text-anchor="middle" x="180.35" y="-150.69" font-family="Times New Roman,serif" font-size="14.00">n21</text>
</g>
<!-- 2637101613584&#45;&gt;2636776924752 -->
<g id="edge44" class="edge">
<title>2637101613584&#45;&gt;2636776924752</title>
<path fill="none" stroke="black" d="M120.46,-156.12C129.49,-156.12 139.94,-156.12 149.5,-156.12"/>
<polygon fill="black" stroke="black" points="149.44,-157.87 154.44,-156.12 149.44,-154.37 149.44,-157.87"/>
</g>
<!-- 2637102200464 -->
<g id="node18" class="node">
<title>2637102200464</title>
<ellipse fill="lightgrey" stroke="black" cx="180.35" cy="-90.12" rx="24.12" ry="24.12"/>
<text text-anchor="middle" x="180.35" y="-84.69" font-family="Times New Roman,serif" font-size="14.00">n26</text>
</g>
<!-- 2637101613584&#45;&gt;2637102200464 -->
<g id="edge14" class="edge">
<title>2637101613584&#45;&gt;2637102200464</title>
<path fill="none" stroke="black" d="M115.37,-141.47C127.32,-131.88 143.04,-119.26 155.91,-108.93"/>
<polygon fill="black" stroke="black" points="156.89,-110.39 159.69,-105.9 154.69,-107.67 156.89,-110.39"/>
</g>
<!-- 2637101473552 -->
<g id="node20" class="node">
<title>2637101473552</title>
<ellipse fill="lightgrey" stroke="black" cx="180.35" cy="-24.12" rx="24.12" ry="24.12"/>
<text text-anchor="middle" x="180.35" y="-18.69" font-family="Times New Roman,serif" font-size="14.00">n24</text>
</g>
<!-- 2637101613584&#45;&gt;2637101473552 -->
<g id="edge37" class="edge">
<title>2637101613584&#45;&gt;2637101473552</title>
<path fill="none" stroke="black" d="M111.18,-136.82C114.26,-132.38 117.43,-127.64 120.24,-123.12 137.85,-94.72 138.62,-85.51 156.24,-57.12 157.99,-54.29 159.89,-51.38 161.81,-48.51"/>
<polygon fill="black" stroke="black" points="163.06,-49.78 164.44,-44.67 160.18,-47.81 163.06,-49.78"/>
</g>
<!-- 2637102189200 -->
<g id="node5" class="node">
<title>2637102189200</title>
<polygon fill="none" stroke="black" points="36,-207.12 0,-207.12 0,-171.12 36,-171.12 36,-207.12"/>
<text text-anchor="middle" x="18" y="-183.69" font-family="Times New Roman,serif" font-size="14.00">x2</text>
</g>
<!-- 2637102189200&#45;&gt;2637101613584 -->
<g id="edge30" class="edge">
<title>2637102189200&#45;&gt;2637101613584</title>
<path fill="none" stroke="black" d="M36.27,-181.63C45.6,-177.59 57.33,-172.5 67.85,-167.94"/>
<polygon fill="black" stroke="black" points="68.28,-169.66 72.17,-166.07 66.88,-166.45 68.28,-169.66"/>
</g>
<!-- 2637102189200&#45;&gt;2637101615760 -->
<g id="edge55" class="edge">
<title>2637102189200&#45;&gt;2637101615760</title>
<path fill="none" stroke="black" d="M32.96,-170.96C45.36,-154.84 63.55,-131.18 77.05,-113.61"/>
<polygon fill="black" stroke="black" points="78.15,-115.06 79.81,-110.03 75.37,-112.93 78.15,-115.06"/>
</g>
<!-- 2637102189200&#45;&gt;2637101614480 -->
<g id="edge63" class="edge">
<title>2637102189200&#45;&gt;2637101614480</title>
<path fill="none" stroke="black" d="M32.96,-207.28C45.36,-223.4 63.55,-247.06 77.05,-264.62"/>
<polygon fill="black" stroke="black" points="75.37,-265.31 79.81,-268.2 78.15,-263.17 75.37,-265.31"/>
</g>
<!-- 2637102189200&#45;&gt;2637101625232 -->
<g id="edge1" class="edge">
<title>2637102189200&#45;&gt;2637101625232</title>
<path fill="none" stroke="black" d="M36.27,-196.61C45.6,-200.65 57.33,-205.73 67.85,-210.3"/>
<polygon fill="black" stroke="black" points="66.88,-211.79 72.17,-212.17 68.28,-208.57 66.88,-211.79"/>
</g>
<!-- 2637101615760&#45;&gt;2637101465936 -->
<g id="edge71" class="edge">
<title>2637101615760&#45;&gt;2637101465936</title>
<path fill="none" stroke="black" d="M112.06,-108.49C115.17,-113.05 118.13,-118.08 120.24,-123.12 154.69,-205.66 121.78,-238.58 156.24,-321.12 157.55,-324.27 159.2,-327.41 161.02,-330.44"/>
<polygon fill="black" stroke="black" points="159.43,-331.21 163.6,-334.47 162.37,-329.32 159.43,-331.21"/>
</g>
<!-- 2637101615760&#45;&gt;2637101472592 -->
<g id="edge59" class="edge">
<title>2637101615760&#45;&gt;2637101472592</title>
<path fill="none" stroke="black" d="M111.74,-108.63C114.87,-113.19 117.92,-118.18 120.24,-123.12 146.06,-178.17 130.41,-200.07 156.24,-255.12 157.68,-258.21 159.42,-261.31 161.28,-264.32"/>
<polygon fill="black" stroke="black" points="159.7,-265.11 163.9,-268.34 162.63,-263.2 159.7,-265.11"/>
</g>
<!-- 2637101615760&#45;&gt;2637102201808 -->
<g id="edge45" class="edge">
<title>2637101615760&#45;&gt;2637102201808</title>
<path fill="none" stroke="black" d="M111.18,-109.42C114.26,-113.86 117.43,-118.6 120.24,-123.12 137.85,-151.51 138.62,-160.72 156.24,-189.12 157.99,-191.94 159.89,-194.85 161.81,-197.72"/>
<polygon fill="black" stroke="black" points="160.18,-198.43 164.44,-201.57 163.06,-196.45 160.18,-198.43"/>
</g>
<!-- 2637101615760&#45;&gt;2636776924752 -->
<g id="edge50" class="edge">
<title>2637101615760&#45;&gt;2636776924752</title>
<path fill="none" stroke="black" d="M115.37,-104.77C127.32,-114.35 143.04,-126.97 155.91,-137.3"/>
<polygon fill="black" stroke="black" points="154.69,-138.57 159.69,-140.34 156.89,-135.84 154.69,-138.57"/>
</g>
<!-- 2637101615760&#45;&gt;2637102200464 -->
<g id="edge22" class="edge">
<title>2637101615760&#45;&gt;2637102200464</title>
<path fill="none" stroke="black" d="M120.46,-90.12C129.49,-90.12 139.94,-90.12 149.5,-90.12"/>
<polygon fill="black" stroke="black" points="149.44,-91.87 154.44,-90.12 149.44,-88.37 149.44,-91.87"/>
</g>
<!-- 2637101615760&#45;&gt;2637101473552 -->
<g id="edge46" class="edge">
<title>2637101615760&#45;&gt;2637101473552</title>
<path fill="none" stroke="black" d="M115.37,-75.47C127.32,-65.88 143.04,-53.26 155.91,-42.93"/>
<polygon fill="black" stroke="black" points="156.89,-44.39 159.69,-39.9 154.69,-41.67 156.89,-44.39"/>
</g>
<!-- 2637101472592&#45;&gt;2637102198928 -->
<g id="edge31" class="edge">
<title>2637101472592&#45;&gt;2637102198928</title>
<path fill="none" stroke="black" d="M202.96,-279.45C213.08,-275.39 225.25,-270.5 236.02,-266.18"/>
<polygon fill="black" stroke="black" points="236.45,-267.9 240.44,-264.41 235.15,-264.65 236.45,-267.9"/>
</g>
<!-- 2637101472592&#45;&gt;2637102193488 -->
<g id="edge4" class="edge">
<title>2637101472592&#45;&gt;2637102193488</title>
<path fill="none" stroke="black" d="M196.44,-269.96C209.92,-253.73 229.73,-229.88 244.35,-212.28"/>
<polygon fill="black" stroke="black" points="245.51,-213.63 247.36,-208.66 242.82,-211.39 245.51,-213.63"/>
</g>
<!-- 2637101472592&#45;&gt;2637102200016 -->
<g id="edge47" class="edge">
<title>2637101472592&#45;&gt;2637102200016</title>
<path fill="none" stroke="black" d="M195.93,-269.11C198.98,-264.66 202.02,-259.83 204.47,-255.12 226.09,-213.59 218.86,-197.65 240.47,-156.12 242.01,-153.17 243.77,-150.18 245.62,-147.27"/>
<polygon fill="black" stroke="black" points="246.88,-148.52 248.18,-143.39 243.96,-146.59 246.88,-148.52"/>
</g>
<!-- 2637101472592&#45;&gt;2637102194000 -->
<g id="edge19" class="edge">
<title>2637101472592&#45;&gt;2637102194000</title>
<path fill="none" stroke="black" d="M196.17,-269.69C199.28,-265.13 202.28,-260.12 204.47,-255.12 234.59,-186.37 210.35,-158.87 240.47,-90.12 241.84,-86.99 243.53,-83.86 245.36,-80.84"/>
<polygon fill="black" stroke="black" points="246.72,-81.97 247.96,-76.82 243.78,-80.07 246.72,-81.97"/>
</g>
<!-- 2637101472592&#45;&gt;2637102202704 -->
<g id="edge12" class="edge">
<title>2637101472592&#45;&gt;2637102202704</title>
<path fill="none" stroke="black" d="M202.96,-296.79C213.08,-300.85 225.25,-305.73 236.02,-310.06"/>
<polygon fill="black" stroke="black" points="235.15,-311.59 240.44,-311.83 236.45,-308.34 235.15,-311.59"/>
</g>
<!-- 2637102193488&#45;&gt;2637102195856 -->
<g id="edge11" class="edge">
<title>2637102193488&#45;&gt;2637102195856</title>
<path fill="none" stroke="black" d="M283.84,-203.77C295.79,-213.35 311.51,-225.97 324.38,-236.3"/>
<polygon fill="black" stroke="black" points="323.17,-237.57 328.16,-239.34 325.36,-234.84 323.17,-237.57"/>
</g>
<!-- 2637102193488&#45;&gt;2637102196048 -->
<g id="edge68" class="edge">
<title>2637102193488&#45;&gt;2637102196048</title>
<path fill="none" stroke="black" d="M288.94,-189.12C297.96,-189.12 308.41,-189.12 317.97,-189.12"/>
<polygon fill="black" stroke="black" points="317.91,-190.87 322.91,-189.12 317.91,-187.37 317.91,-190.87"/>
</g>
<!-- 2637102193488&#45;&gt;2637102194576 -->
<g id="edge17" class="edge">
<title>2637102193488&#45;&gt;2637102194576</title>
<path fill="none" stroke="black" d="M283.84,-174.47C295.79,-164.88 311.51,-152.26 324.38,-141.93"/>
<polygon fill="black" stroke="black" points="325.36,-143.39 328.16,-138.9 323.17,-140.67 325.36,-143.39"/>
</g>
<!-- 2637102201808&#45;&gt;2637102198928 -->
<g id="edge61" class="edge">
<title>2637102201808&#45;&gt;2637102198928</title>
<path fill="none" stroke="black" d="M202.96,-230.79C213.08,-234.85 225.25,-239.73 236.02,-244.06"/>
<polygon fill="black" stroke="black" points="235.15,-245.59 240.44,-245.83 236.45,-242.34 235.15,-245.59"/>
</g>
<!-- 2637102201808&#45;&gt;2637102193488 -->
<g id="edge49" class="edge">
<title>2637102201808&#45;&gt;2637102193488</title>
<path fill="none" stroke="black" d="M202.96,-213.45C213.08,-209.39 225.25,-204.5 236.02,-200.18"/>
<polygon fill="black" stroke="black" points="236.45,-201.9 240.44,-198.41 235.15,-198.65 236.45,-201.9"/>
</g>
<!-- 2637102201808&#45;&gt;2637102200016 -->
<g id="edge24" class="edge">
<title>2637102201808&#45;&gt;2637102200016</title>
<path fill="none" stroke="black" d="M196.44,-203.96C209.92,-187.73 229.73,-163.88 244.35,-146.28"/>
<polygon fill="black" stroke="black" points="245.51,-147.63 247.36,-142.66 242.82,-145.39 245.51,-147.63"/>
</g>
<!-- 2637102201808&#45;&gt;2637102194000 -->
<g id="edge39" class="edge">
<title>2637102201808&#45;&gt;2637102194000</title>
<path fill="none" stroke="black" d="M195.93,-203.11C198.98,-198.66 202.02,-193.83 204.47,-189.12 226.09,-147.59 218.86,-131.65 240.47,-90.12 242.01,-87.17 243.77,-84.18 245.62,-81.27"/>
<polygon fill="black" stroke="black" points="246.88,-82.52 248.18,-77.39 243.96,-80.59 246.88,-82.52"/>
</g>
<!-- 2637102201808&#45;&gt;2637102202704 -->
<g id="edge54" class="edge">
<title>2637102201808&#45;&gt;2637102202704</title>
<path fill="none" stroke="black" d="M196.44,-240.28C209.92,-256.5 229.73,-280.36 244.35,-297.95"/>
<polygon fill="black" stroke="black" points="242.82,-298.85 247.36,-301.58 245.51,-296.61 242.82,-298.85"/>
</g>
<!-- 2637102187536 -->
<g id="node10" class="node">
<title>2637102187536</title>
<polygon fill="none" stroke="black" points="36,-153.12 0,-153.12 0,-117.12 36,-117.12 36,-153.12"/>
<text text-anchor="middle" x="18" y="-129.69" font-family="Times New Roman,serif" font-size="14.00">x3</text>
</g>
<!-- 2637102187536&#45;&gt;2637101613584 -->
<g id="edge32" class="edge">
<title>2637102187536&#45;&gt;2637101613584</title>
<path fill="none" stroke="black" d="M36.27,-139.88C45.14,-142.33 56.17,-145.37 66.28,-148.16"/>
<polygon fill="black" stroke="black" points="65.68,-149.81 70.97,-149.45 66.61,-146.44 65.68,-149.81"/>
</g>
<!-- 2637102187536&#45;&gt;2637101615760 -->
<g id="edge8" class="edge">
<title>2637102187536&#45;&gt;2637101615760</title>
<path fill="none" stroke="black" d="M36.27,-124.91C45.98,-119.17 58.3,-111.88 69.15,-105.47"/>
<polygon fill="black" stroke="black" points="69.96,-107.03 73.37,-102.98 68.18,-104.01 69.96,-107.03"/>
</g>
<!-- 2637102187536&#45;&gt;2637101614480 -->
<g id="edge15" class="edge">
<title>2637102187536&#45;&gt;2637101614480</title>
<path fill="none" stroke="black" d="M31.19,-153.44C32.9,-156.29 34.56,-159.25 36,-162.12 55.9,-201.72 51.13,-216.02 72,-255.12 73.56,-258.05 75.34,-261.03 77.21,-263.94"/>
<polygon fill="black" stroke="black" points="75.55,-264.61 79.78,-267.81 78.47,-262.68 75.55,-264.61"/>
</g>
<!-- 2637102187536&#45;&gt;2637101625232 -->
<g id="edge5" class="edge">
<title>2637102187536&#45;&gt;2637101625232</title>
<path fill="none" stroke="black" d="M35.14,-153.57C46.91,-167.01 62.9,-185.3 75.42,-199.6"/>
<polygon fill="black" stroke="black" points="73.91,-200.54 78.52,-203.15 76.55,-198.23 73.91,-200.54"/>
</g>
<!-- 2637102197968 -->
<g id="node12" class="node">
<title>2637102197968</title>
<ellipse fill="lightgrey" stroke="black" cx="433.06" cy="-189.12" rx="24.12" ry="24.12"/>
<text text-anchor="middle" x="433.06" y="-183.69" font-family="Times New Roman,serif" font-size="14.00">n51</text>
</g>
<!-- 2637102195856&#45;&gt;2637102197968 -->
<g id="edge21" class="edge">
<title>2637102195856&#45;&gt;2637102197968</title>
<path fill="none" stroke="black" d="M368.08,-240.47C380.03,-230.88 395.75,-218.26 408.62,-207.93"/>
<polygon fill="black" stroke="black" points="409.59,-209.39 412.4,-204.9 407.4,-206.67 409.59,-209.39"/>
</g>
<!-- 2637102200016&#45;&gt;2637102195856 -->
<g id="edge83" class="edge">
<title>2637102200016&#45;&gt;2637102195856</title>
<path fill="none" stroke="black" d="M279.65,-142.42C282.73,-146.86 285.91,-151.6 288.71,-156.12 306.32,-184.51 307.1,-193.72 324.71,-222.12 326.46,-224.94 328.36,-227.85 330.29,-230.72"/>
<polygon fill="black" stroke="black" points="328.65,-231.43 332.91,-234.57 331.54,-229.45 328.65,-231.43"/>
</g>
<!-- 2637102200016&#45;&gt;2637102196048 -->
<g id="edge34" class="edge">
<title>2637102200016&#45;&gt;2637102196048</title>
<path fill="none" stroke="black" d="M283.84,-137.77C295.79,-147.35 311.51,-159.97 324.38,-170.3"/>
<polygon fill="black" stroke="black" points="323.17,-171.57 328.16,-173.34 325.36,-168.84 323.17,-171.57"/>
</g>
<!-- 2637102200016&#45;&gt;2637102194576 -->
<g id="edge60" class="edge">
<title>2637102200016&#45;&gt;2637102194576</title>
<path fill="none" stroke="black" d="M288.94,-123.12C297.96,-123.12 308.41,-123.12 317.97,-123.12"/>
<polygon fill="black" stroke="black" points="317.91,-124.87 322.91,-123.12 317.91,-121.37 317.91,-124.87"/>
</g>
<!-- 2637102194000&#45;&gt;2637102195856 -->
<g id="edge18" class="edge">
<title>2637102194000&#45;&gt;2637102195856</title>
<path fill="none" stroke="black" d="M280.22,-75.63C283.34,-80.19 286.39,-85.18 288.71,-90.12 314.54,-145.17 298.88,-167.07 324.71,-222.12 326.16,-225.21 327.89,-228.31 329.75,-231.32"/>
<polygon fill="black" stroke="black" points="328.18,-232.11 332.37,-235.34 331.11,-230.2 328.18,-232.11"/>
</g>
<!-- 2637102194000&#45;&gt;2637102196048 -->
<g id="edge79" class="edge">
<title>2637102194000&#45;&gt;2637102196048</title>
<path fill="none" stroke="black" d="M279.65,-76.42C282.73,-80.86 285.91,-85.6 288.71,-90.12 306.32,-118.51 307.1,-127.72 324.71,-156.12 326.46,-158.94 328.36,-161.85 330.29,-164.72"/>
<polygon fill="black" stroke="black" points="328.65,-165.43 332.91,-168.57 331.54,-163.45 328.65,-165.43"/>
</g>
<!-- 2637102194000&#45;&gt;2637102194576 -->
<g id="edge26" class="edge">
<title>2637102194000&#45;&gt;2637102194576</title>
<path fill="none" stroke="black" d="M283.84,-71.77C295.79,-81.35 311.51,-93.97 324.38,-104.3"/>
<polygon fill="black" stroke="black" points="323.17,-105.57 328.16,-107.34 325.36,-102.84 323.17,-105.57"/>
</g>
<!-- 2637102196048&#45;&gt;2637102197968 -->
<g id="edge67" class="edge">
<title>2637102196048&#45;&gt;2637102197968</title>
<path fill="none" stroke="black" d="M373.17,-189.12C382.2,-189.12 392.64,-189.12 402.21,-189.12"/>
<polygon fill="black" stroke="black" points="402.15,-190.87 407.15,-189.12 402.15,-187.37 402.15,-190.87"/>
</g>
<!-- 2637101614480&#45;&gt;2637101465936 -->
<g id="edge20" class="edge">
<title>2637101614480&#45;&gt;2637101465936</title>
<path fill="none" stroke="black" d="M115.37,-302.77C127.32,-312.35 143.04,-324.97 155.91,-335.3"/>
<polygon fill="black" stroke="black" points="154.69,-336.57 159.69,-338.34 156.89,-333.84 154.69,-336.57"/>
</g>
<!-- 2637101614480&#45;&gt;2637101472592 -->
<g id="edge10" class="edge">
<title>2637101614480&#45;&gt;2637101472592</title>
<path fill="none" stroke="black" d="M120.46,-288.12C129.49,-288.12 139.94,-288.12 149.5,-288.12"/>
<polygon fill="black" stroke="black" points="149.44,-289.87 154.44,-288.12 149.44,-286.37 149.44,-289.87"/>
</g>
<!-- 2637101614480&#45;&gt;2637102201808 -->
<g id="edge74" class="edge">
<title>2637101614480&#45;&gt;2637102201808</title>
<path fill="none" stroke="black" d="M115.37,-273.47C127.32,-263.88 143.04,-251.26 155.91,-240.93"/>
<polygon fill="black" stroke="black" points="156.89,-242.39 159.69,-237.9 154.69,-239.67 156.89,-242.39"/>
</g>
<!-- 2637101614480&#45;&gt;2636776924752 -->
<g id="edge42" class="edge">
<title>2637101614480&#45;&gt;2636776924752</title>
<path fill="none" stroke="black" d="M111.18,-268.82C114.26,-264.38 117.43,-259.64 120.24,-255.12 137.85,-226.72 138.62,-217.51 156.24,-189.12 157.99,-186.29 159.89,-183.38 161.81,-180.51"/>
<polygon fill="black" stroke="black" points="163.06,-181.78 164.44,-176.67 160.18,-179.81 163.06,-181.78"/>
</g>
<!-- 2637101614480&#45;&gt;2637102200464 -->
<g id="edge40" class="edge">
<title>2637101614480&#45;&gt;2637102200464</title>
<path fill="none" stroke="black" d="M111.74,-269.61C114.87,-265.05 117.92,-260.06 120.24,-255.12 146.06,-200.07 130.41,-178.17 156.24,-123.12 157.68,-120.03 159.42,-116.92 161.28,-113.91"/>
<polygon fill="black" stroke="black" points="162.63,-115.04 163.9,-109.9 159.7,-113.13 162.63,-115.04"/>
</g>
<!-- 2637101614480&#45;&gt;2637101473552 -->
<g id="edge77" class="edge">
<title>2637101614480&#45;&gt;2637101473552</title>
<path fill="none" stroke="black" d="M112.06,-269.74C115.17,-265.18 118.13,-260.15 120.24,-255.12 154.69,-172.58 121.78,-139.66 156.24,-57.12 157.55,-53.97 159.2,-50.83 161.02,-47.8"/>
<polygon fill="black" stroke="black" points="162.37,-48.92 163.6,-43.77 159.43,-47.03 162.37,-48.92"/>
</g>
<!-- 2636776924752&#45;&gt;2637102198928 -->
<g id="edge7" class="edge">
<title>2636776924752&#45;&gt;2637102198928</title>
<path fill="none" stroke="black" d="M196.44,-174.28C209.92,-190.5 229.73,-214.36 244.35,-231.95"/>
<polygon fill="black" stroke="black" points="242.82,-232.85 247.36,-235.58 245.51,-230.61 242.82,-232.85"/>
</g>
<!-- 2636776924752&#45;&gt;2637102193488 -->
<g id="edge76" class="edge">
<title>2636776924752&#45;&gt;2637102193488</title>
<path fill="none" stroke="black" d="M202.96,-164.79C213.08,-168.85 225.25,-173.73 236.02,-178.06"/>
<polygon fill="black" stroke="black" points="235.15,-179.59 240.44,-179.83 236.45,-176.34 235.15,-179.59"/>
</g>
<!-- 2636776924752&#45;&gt;2637102200016 -->
<g id="edge25" class="edge">
<title>2636776924752&#45;&gt;2637102200016</title>
<path fill="none" stroke="black" d="M202.96,-147.45C213.08,-143.39 225.25,-138.5 236.02,-134.18"/>
<polygon fill="black" stroke="black" points="236.45,-135.9 240.44,-132.41 235.15,-132.65 236.45,-135.9"/>
</g>
<!-- 2636776924752&#45;&gt;2637102194000 -->
<g id="edge62" class="edge">
<title>2636776924752&#45;&gt;2637102194000</title>
<path fill="none" stroke="black" d="M196.44,-137.96C209.92,-121.73 229.73,-97.88 244.35,-80.28"/>
<polygon fill="black" stroke="black" points="245.51,-81.63 247.36,-76.66 242.82,-79.39 245.51,-81.63"/>
</g>
<!-- 2636776924752&#45;&gt;2637102202704 -->
<g id="edge82" class="edge">
<title>2636776924752&#45;&gt;2637102202704</title>
<path fill="none" stroke="black" d="M195.93,-175.13C198.98,-179.58 202.02,-184.4 204.47,-189.12 226.09,-230.65 218.86,-246.59 240.47,-288.12 242.01,-291.07 243.77,-294.06 245.62,-296.97"/>
<polygon fill="black" stroke="black" points="243.96,-297.64 248.18,-300.85 246.88,-295.71 243.96,-297.64"/>
</g>
<!-- 2637102200464&#45;&gt;2637102198928 -->
<g id="edge28" class="edge">
<title>2637102200464&#45;&gt;2637102198928</title>
<path fill="none" stroke="black" d="M195.93,-109.13C198.98,-113.58 202.02,-118.4 204.47,-123.12 226.09,-164.65 218.86,-180.59 240.47,-222.12 242.01,-225.07 243.77,-228.06 245.62,-230.97"/>
<polygon fill="black" stroke="black" points="243.96,-231.64 248.18,-234.85 246.88,-229.71 243.96,-231.64"/>
</g>
<!-- 2637102200464&#45;&gt;2637102193488 -->
<g id="edge80" class="edge">
<title>2637102200464&#45;&gt;2637102193488</title>
<path fill="none" stroke="black" d="M196.44,-108.28C209.92,-124.5 229.73,-148.36 244.35,-165.95"/>
<polygon fill="black" stroke="black" points="242.82,-166.85 247.36,-169.58 245.51,-164.61 242.82,-166.85"/>
</g>
<!-- 2637102200464&#45;&gt;2637102200016 -->
<g id="edge38" class="edge">
<title>2637102200464&#45;&gt;2637102200016</title>
<path fill="none" stroke="black" d="M202.96,-98.79C213.08,-102.85 225.25,-107.73 236.02,-112.06"/>
<polygon fill="black" stroke="black" points="235.15,-113.59 240.44,-113.83 236.45,-110.34 235.15,-113.59"/>
</g>
<!-- 2637102200464&#45;&gt;2637102194000 -->
<g id="edge9" class="edge">
<title>2637102200464&#45;&gt;2637102194000</title>
<path fill="none" stroke="black" d="M202.96,-81.45C213.08,-77.39 225.25,-72.5 236.02,-68.18"/>
<polygon fill="black" stroke="black" points="236.45,-69.9 240.44,-66.41 235.15,-66.65 236.45,-69.9"/>
</g>
<!-- 2637102200464&#45;&gt;2637102202704 -->
<g id="edge2" class="edge">
<title>2637102200464&#45;&gt;2637102202704</title>
<path fill="none" stroke="black" d="M196.17,-108.55C199.28,-113.1 202.28,-118.12 204.47,-123.12 234.59,-191.87 210.35,-219.37 240.47,-288.12 241.84,-291.24 243.53,-294.37 245.36,-297.39"/>
<polygon fill="black" stroke="black" points="243.78,-298.17 247.96,-301.42 246.72,-296.27 243.78,-298.17"/>
</g>
<!-- 2637102194576&#45;&gt;2637102197968 -->
<g id="edge41" class="edge">
<title>2637102194576&#45;&gt;2637102197968</title>
<path fill="none" stroke="black" d="M368.08,-137.77C380.03,-147.35 395.75,-159.97 408.62,-170.3"/>
<polygon fill="black" stroke="black" points="407.4,-171.57 412.4,-173.34 409.59,-168.84 407.4,-171.57"/>
</g>
<!-- 2637101473552&#45;&gt;2637102198928 -->
<g id="edge72" class="edge">
<title>2637101473552&#45;&gt;2637102198928</title>
<path fill="none" stroke="black" d="M196.17,-42.55C199.28,-47.1 202.28,-52.12 204.47,-57.12 234.59,-125.87 210.35,-153.37 240.47,-222.12 241.84,-225.24 243.53,-228.37 245.36,-231.39"/>
<polygon fill="black" stroke="black" points="243.78,-232.17 247.96,-235.42 246.72,-230.27 243.78,-232.17"/>
</g>
<!-- 2637101473552&#45;&gt;2637102193488 -->
<g id="edge35" class="edge">
<title>2637101473552&#45;&gt;2637102193488</title>
<path fill="none" stroke="black" d="M195.93,-43.13C198.98,-47.58 202.02,-52.4 204.47,-57.12 226.09,-98.65 218.86,-114.59 240.47,-156.12 242.01,-159.07 243.77,-162.06 245.62,-164.97"/>
<polygon fill="black" stroke="black" points="243.96,-165.64 248.18,-168.85 246.88,-163.71 243.96,-165.64"/>
</g>
<!-- 2637101473552&#45;&gt;2637102200016 -->
<g id="edge6" class="edge">
<title>2637101473552&#45;&gt;2637102200016</title>
<path fill="none" stroke="black" d="M196.44,-42.28C209.92,-58.5 229.73,-82.36 244.35,-99.95"/>
<polygon fill="black" stroke="black" points="242.82,-100.85 247.36,-103.58 245.51,-98.61 242.82,-100.85"/>
</g>
<!-- 2637101473552&#45;&gt;2637102194000 -->
<g id="edge48" class="edge">
<title>2637101473552&#45;&gt;2637102194000</title>
<path fill="none" stroke="black" d="M202.96,-32.79C213.08,-36.85 225.25,-41.73 236.02,-46.06"/>
<polygon fill="black" stroke="black" points="235.15,-47.59 240.44,-47.83 236.45,-44.34 235.15,-47.59"/>
</g>
<!-- 2637101473552&#45;&gt;2637102202704 -->
<g id="edge43" class="edge">
<title>2637101473552&#45;&gt;2637102202704</title>
<path fill="none" stroke="black" d="M196.39,-42.45C199.49,-47.02 202.43,-52.06 204.47,-57.12 243.29,-153.5 201.66,-191.73 240.47,-288.12 241.75,-291.28 243.37,-294.44 245.17,-297.47"/>
<polygon fill="black" stroke="black" points="243.58,-298.23 247.75,-301.51 246.53,-296.35 243.58,-298.23"/>
</g>
<!-- 2637102202704&#45;&gt;2637102195856 -->
<g id="edge73" class="edge">
<title>2637102202704&#45;&gt;2637102195856</title>
<path fill="none" stroke="black" d="M283.84,-306.47C295.79,-296.88 311.51,-284.26 324.38,-273.93"/>
<polygon fill="black" stroke="black" points="325.36,-275.39 328.16,-270.9 323.17,-272.67 325.36,-275.39"/>
</g>
<!-- 2637102202704&#45;&gt;2637102196048 -->
<g id="edge51" class="edge">
<title>2637102202704&#45;&gt;2637102196048</title>
<path fill="none" stroke="black" d="M279.65,-301.82C282.73,-297.38 285.91,-292.64 288.71,-288.12 306.32,-259.72 307.1,-250.51 324.71,-222.12 326.46,-219.29 328.36,-216.38 330.29,-213.51"/>
<polygon fill="black" stroke="black" points="331.54,-214.78 332.91,-209.67 328.65,-212.81 331.54,-214.78"/>
</g>
<!-- 2637102202704&#45;&gt;2637102194576 -->
<g id="edge81" class="edge">
<title>2637102202704&#45;&gt;2637102194576</title>
<path fill="none" stroke="black" d="M280.22,-302.61C283.34,-298.05 286.39,-293.06 288.71,-288.12 314.54,-233.07 298.88,-211.17 324.71,-156.12 326.16,-153.03 327.89,-149.92 329.75,-146.91"/>
<polygon fill="black" stroke="black" points="331.11,-148.04 332.37,-142.9 328.18,-146.13 331.11,-148.04"/>
</g>
<!-- 2637101625232&#45;&gt;2637101465936 -->
<g id="edge13" class="edge">
<title>2637101625232&#45;&gt;2637101465936</title>
<path fill="none" stroke="black" d="M111.18,-241.42C114.26,-245.86 117.43,-250.6 120.24,-255.12 137.85,-283.51 138.62,-292.72 156.24,-321.12 157.99,-323.94 159.89,-326.85 161.81,-329.72"/>
<polygon fill="black" stroke="black" points="160.18,-330.43 164.44,-333.57 163.06,-328.45 160.18,-330.43"/>
</g>
<!-- 2637101625232&#45;&gt;2637101472592 -->
<g id="edge3" class="edge">
<title>2637101625232&#45;&gt;2637101472592</title>
<path fill="none" stroke="black" d="M115.37,-236.77C127.32,-246.35 143.04,-258.97 155.91,-269.3"/>
<polygon fill="black" stroke="black" points="154.69,-270.57 159.69,-272.34 156.89,-267.84 154.69,-270.57"/>
</g>
<!-- 2637101625232&#45;&gt;2637102201808 -->
<g id="edge66" class="edge">
<title>2637101625232&#45;&gt;2637102201808</title>
<path fill="none" stroke="black" d="M120.46,-222.12C129.49,-222.12 139.94,-222.12 149.5,-222.12"/>
<polygon fill="black" stroke="black" points="149.44,-223.87 154.44,-222.12 149.44,-220.37 149.44,-223.87"/>
</g>
<!-- 2637101625232&#45;&gt;2636776924752 -->
<g id="edge75" class="edge">
<title>2637101625232&#45;&gt;2636776924752</title>
<path fill="none" stroke="black" d="M115.37,-207.47C127.32,-197.88 143.04,-185.26 155.91,-174.93"/>
<polygon fill="black" stroke="black" points="156.89,-176.39 159.69,-171.9 154.69,-173.67 156.89,-176.39"/>
</g>
<!-- 2637101625232&#45;&gt;2637102200464 -->
<g id="edge33" class="edge">
<title>2637101625232&#45;&gt;2637102200464</title>
<path fill="none" stroke="black" d="M111.18,-202.82C114.26,-198.38 117.43,-193.64 120.24,-189.12 137.85,-160.72 138.62,-151.51 156.24,-123.12 157.99,-120.29 159.89,-117.38 161.81,-114.51"/>
<polygon fill="black" stroke="black" points="163.06,-115.78 164.44,-110.67 160.18,-113.81 163.06,-115.78"/>
</g>
<!-- 2637101625232&#45;&gt;2637101473552 -->
<g id="edge69" class="edge">
<title>2637101625232&#45;&gt;2637101473552</title>
<path fill="none" stroke="black" d="M111.74,-203.61C114.87,-199.05 117.92,-194.06 120.24,-189.12 146.06,-134.07 130.41,-112.17 156.24,-57.12 157.68,-54.03 159.42,-50.92 161.28,-47.91"/>
<polygon fill="black" stroke="black" points="162.63,-49.04 163.9,-43.9 159.7,-47.13 162.63,-49.04"/>
</g>
</g>
</svg>
